<svg width="21" height="20" viewBox="0 0 21 20" fill="none" xmlns="http://www.w3.org/2000/svg">
<path d="M5 10L16 10" stroke="black" stroke-width="1.2" stroke-linecap="round" stroke-linejoin="round"/>
<path d="M18.375 1.25C18.7231 1.25 19.0569 1.3817 19.3031 1.61612C19.5492 1.85054 19.6875 2.16848 19.6875 2.5V17.5C19.6875 17.8315 19.5492 18.1495 19.3031 18.3839C19.0569 18.6183 18.7231 18.75 18.375 18.75H2.625C2.2769 18.75 1.94306 18.6183 1.69692 18.3839C1.45078 18.1495 1.3125 17.8315 1.3125 17.5V2.5C1.3125 2.16848 1.45078 1.85054 1.69692 1.61612C1.94306 1.3817 2.2769 1.25 2.625 1.25H18.375ZM2.625 0C1.92881 0 1.26113 0.263392 0.768845 0.732233C0.276562 1.20107 0 1.83696 0 2.5L0 17.5C0 18.163 0.276562 18.7989 0.768845 19.2678C1.26113 19.7366 1.92881 20 2.625 20H18.375C19.0712 20 19.7389 19.7366 20.2312 19.2678C20.7234 18.7989 21 18.163 21 17.5V2.5C21 1.83696 20.7234 1.20107 20.2312 0.732233C19.7389 0.263392 19.0712 0 18.375 0L2.625 0Z" fill="black"/>
</svg>
