<svg width="21" height="20" viewBox="0 0 21 20" fill="none" xmlns="http://www.w3.org/2000/svg">
<g clip-path="url(#clip0)">
<path d="M18.0146 1.25C18.3533 1.25 18.6781 1.3817 18.9176 1.61612C19.1571 1.85054 19.2916 2.16848 19.2916 2.5V17.5C19.2916 17.8315 19.1571 18.1495 18.9176 18.3839C18.6781 18.6183 18.3533 18.75 18.0146 18.75H2.6907C2.35202 18.75 2.02722 18.6183 1.78773 18.3839C1.54825 18.1495 1.41371 17.8315 1.41371 17.5V2.5C1.41371 2.16848 1.54825 1.85054 1.78773 1.61612C2.02722 1.3817 2.35202 1.25 2.6907 1.25H18.0146ZM2.6907 0C2.01335 0 1.36373 0.263392 0.884764 0.732233C0.405799 1.20107 0.136719 1.83696 0.136719 2.5L0.136719 17.5C0.136719 18.163 0.405799 18.7989 0.884764 19.2678C1.36373 19.7366 2.01335 20 2.6907 20H18.0146C18.692 20 19.3416 19.7366 19.8206 19.2678C20.2995 18.7989 20.5686 18.163 20.5686 17.5V2.5C20.5686 1.83696 20.2995 1.20107 19.8206 0.732233C19.3416 0.263392 18.692 0 18.0146 0L2.6907 0Z" fill="black"/>
<path d="M10.3531 5C10.5224 5 10.6848 5.06585 10.8046 5.18306C10.9243 5.30027 10.9916 5.45924 10.9916 5.625V9.375H14.8226C14.9919 9.375 15.1543 9.44085 15.274 9.55806C15.3938 9.67527 15.4611 9.83424 15.4611 10C15.4611 10.1658 15.3938 10.3247 15.274 10.4419C15.1543 10.5592 14.9919 10.625 14.8226 10.625H10.9916V14.375C10.9916 14.5408 10.9243 14.6997 10.8046 14.8169C10.6848 14.9342 10.5224 15 10.3531 15C10.1837 15 10.0213 14.9342 9.9016 14.8169C9.78186 14.6997 9.71459 14.5408 9.71459 14.375V10.625H5.88361C5.71427 10.625 5.55187 10.5592 5.43213 10.4419C5.31239 10.3247 5.24512 10.1658 5.24512 10C5.24512 9.83424 5.31239 9.67527 5.43213 9.55806C5.55187 9.44085 5.71427 9.375 5.88361 9.375H9.71459V5.625C9.71459 5.45924 9.78186 5.30027 9.9016 5.18306C10.0213 5.06585 10.1837 5 10.3531 5Z" fill="black"/>
</g>
<defs>
<clipPath id="clip0">
<rect width="20.4319" height="20" fill="white" transform="translate(0.136719)"/>
</clipPath>
</defs>
</svg>
