<svg width="25" height="28.85" viewBox="0 0 21 24" fill="none" xmlns="http://www.w3.org/2000/svg">
<path d="M6.3415 8.46155C6.54551 8.46155 6.74117 8.54259 6.88542 8.68685C7.02968 8.83111 7.11073 9.02677 7.11073 9.23078V18.4615C7.11073 18.6656 7.02968 18.8612 6.88542 19.0055C6.74117 19.1497 6.54551 19.2308 6.3415 19.2308C6.13748 19.2308 5.94183 19.1497 5.79757 19.0055C5.65331 18.8612 5.57227 18.6656 5.57227 18.4615V9.23078C5.57227 9.02677 5.65331 8.83111 5.79757 8.68685C5.94183 8.54259 6.13748 8.46155 6.3415 8.46155V8.46155ZM10.1877 8.46155C10.3917 8.46155 10.5873 8.54259 10.7316 8.68685C10.8758 8.83111 10.9569 9.02677 10.9569 9.23078V18.4615C10.9569 18.6656 10.8758 18.8612 10.7316 19.0055C10.5873 19.1497 10.3917 19.2308 10.1877 19.2308C9.98364 19.2308 9.78798 19.1497 9.64372 19.0055C9.49946 18.8612 9.41842 18.6656 9.41842 18.4615V9.23078C9.41842 9.02677 9.49946 8.83111 9.64372 8.68685C9.78798 8.54259 9.98364 8.46155 10.1877 8.46155V8.46155ZM14.803 9.23078C14.803 9.02677 14.722 8.83111 14.5777 8.68685C14.4335 8.54259 14.2378 8.46155 14.0338 8.46155C13.8298 8.46155 13.6341 8.54259 13.4899 8.68685C13.3456 8.83111 13.2646 9.02677 13.2646 9.23078V18.4615C13.2646 18.6656 13.3456 18.8612 13.4899 19.0055C13.6341 19.1497 13.8298 19.2308 14.0338 19.2308C14.2378 19.2308 14.4335 19.1497 14.5777 19.0055C14.722 18.8612 14.803 18.6656 14.803 18.4615V9.23078Z" fill="black"/>
<path fill-rule="evenodd" clip-rule="evenodd" d="M20.1875 4.61538C20.1875 5.02341 20.0254 5.41472 19.7369 5.70324C19.4484 5.99176 19.0571 6.15385 18.649 6.15385H17.8798V20C17.8798 20.8161 17.5556 21.5987 16.9786 22.1757C16.4016 22.7527 15.6189 23.0769 14.8029 23.0769H5.57212C4.75606 23.0769 3.97344 22.7527 3.3964 22.1757C2.81937 21.5987 2.49519 20.8161 2.49519 20V6.15385H1.72596C1.31794 6.15385 0.926622 5.99176 0.638105 5.70324C0.349587 5.41472 0.1875 5.02341 0.1875 4.61538V3.07692C0.1875 2.6689 0.349587 2.27758 0.638105 1.98907C0.926622 1.70055 1.31794 1.53846 1.72596 1.53846H7.11058C7.11058 1.13044 7.27266 0.739122 7.56118 0.450605C7.8497 0.162087 8.24101 0 8.64904 0L11.726 0C12.134 0 12.5253 0.162087 12.8138 0.450605C13.1023 0.739122 13.2644 1.13044 13.2644 1.53846H18.649C19.0571 1.53846 19.4484 1.70055 19.7369 1.98907C20.0254 2.27758 20.1875 2.6689 20.1875 3.07692V4.61538ZM4.21519 6.15385L4.03365 6.24462V20C4.03365 20.408 4.19574 20.7993 4.48426 21.0879C4.77278 21.3764 5.16409 21.5385 5.57212 21.5385H14.8029C15.2109 21.5385 15.6022 21.3764 15.8907 21.0879C16.1793 20.7993 16.3413 20.408 16.3413 20V6.24462L16.1598 6.15385H4.21519ZM1.72596 4.61538V3.07692H18.649V4.61538H1.72596Z" fill="black"/>
</svg>
