<svg width="28" height="32" viewBox="0 0 28 32" fill="none" xmlns="http://www.w3.org/2000/svg">
<path fill-rule="evenodd" clip-rule="evenodd" d="M27.8125 6.375C27.8125 6.93859 27.5886 7.47909 27.1901 7.8776C26.7916 8.27612 26.2511 8.5 25.6875 8.5H24.625V27.625C24.625 28.7522 24.1772 29.8332 23.3802 30.6302C22.5832 31.4272 21.5022 31.875 20.375 31.875H7.625C6.49783 31.875 5.41683 31.4272 4.6198 30.6302C3.82277 29.8332 3.375 28.7522 3.375 27.625V8.5H2.3125C1.74891 8.5 1.20841 8.27612 0.809898 7.8776C0.411383 7.47909 0.1875 6.93859 0.1875 6.375V4.25C0.1875 3.68641 0.411383 3.14591 0.809898 2.7474C1.20841 2.34888 1.74891 2.125 2.3125 2.125H9.75C9.75 1.56141 9.97388 1.02091 10.3724 0.622398C10.7709 0.223883 11.3114 0 11.875 0L16.125 0C16.6886 0 17.2291 0.223883 17.6276 0.622398C18.0261 1.02091 18.25 1.56141 18.25 2.125H25.6875C26.2511 2.125 26.7916 2.34888 27.1901 2.7474C27.5886 3.14591 27.8125 3.68641 27.8125 4.25V6.375ZM5.75075 8.5L5.5 8.62537V27.625C5.5 28.1886 5.72388 28.7291 6.1224 29.1276C6.52091 29.5261 7.06141 29.75 7.625 29.75H20.375C20.9386 29.75 21.4791 29.5261 21.8776 29.1276C22.2761 28.7291 22.5 28.1886 22.5 27.625V8.62537L22.2493 8.5H5.75075ZM2.3125 6.375V4.25H25.6875V6.375H2.3125Z" fill="black"/>
</svg>
