<svg width="216" height="176" viewBox="0 0 216 176" fill="none" xmlns="http://www.w3.org/2000/svg">
<path d="M167.085 175.004H183.27C191.46 175.004 198.188 169.937 199.163 163.446L215.25 32.9792H166.5V0.916656H147.293V32.9792H98.835L101.76 51.5042C118.432 55.225 134.033 61.9542 143.393 69.3958C157.432 80.6375 167.085 92.275 167.085 111.275V175.004ZM0.75 167.087V159.25H147.293V167.087C147.293 171.442 142.905 175.004 137.445 175.004H10.5975C5.1375 175.004 0.75 171.442 0.75 167.087ZM147.293 111.671C147.293 48.3375 0.75 48.3375 0.75 111.671H147.293ZM0.945 127.583H147.195V143.417H0.945V127.583Z" fill="black"/>
</svg>
